HIERARCHY
ROOT Hips
{
	OFFSET 0.000000 0.000000 0.000000
	CHANNELS 6 Xposition Yposition Zposition Xrotation Yrotation Zrotation
	JOINT LeftUpLeg_virtual
	{
		OFFSET 0.000000 0.000000 0.000000
		CHANNELS 3 Xrotation Yrotation Zrotation
		JOINT LeftUpLeg
		{
			OFFSET 10.205400 -3.823500 0.155100
			CHANNELS 3 Xrotation Yrotation Zrotation
			JOINT LeftLeg
			{
				OFFSET 0.708757 -12.982077 0.567790
				CHANNELS 3 Xrotation Yrotation Zrotation
				JOINT LeftFoot
				{
					OFFSET -0.708756 -10.717838 -2.184338
					CHANNELS 3 Xrotation Yrotation Zrotation
					JOINT LeftToeBase
					{
						OFFSET 0.108149 -7.191104 7.560241
						CHANNELS 3 Xrotation Yrotation Zrotation
						JOINT LeftToe_End
						{
							OFFSET 0.070230 0.081724 4.490308
							CHANNELS 3 Xrotation Yrotation Zrotation
							End Site
							{
								OFFSET 0 0 0
							}
						}
					}
				}
			}
		}
	}
	JOINT RightUpLeg_virtual
	{
		OFFSET 0.000000 0.000000 0.000000
		CHANNELS 3 Xrotation Yrotation Zrotation
		JOINT RightUpLeg
		{
			OFFSET -10.205400 -3.823500 0.005500
			CHANNELS 3 Xrotation Yrotation Zrotation
			JOINT RightLeg
			{
				OFFSET -0.708756 -12.982134 0.610632
				CHANNELS 3 Xrotation Yrotation Zrotation
				JOINT RightFoot
				{
					OFFSET 0.708754 -10.717769 -1.945823
					CHANNELS 3 Xrotation Yrotation Zrotation
					JOINT RightToeBase
					{
						OFFSET -0.108140 -7.191069 7.372968
						CHANNELS 3 Xrotation Yrotation Zrotation
						JOINT RightToe_End
						{
							OFFSET -0.070227 0.081735 4.479403
							CHANNELS 3 Xrotation Yrotation Zrotation
							End Site
							{
								OFFSET 0 0 0
							}
						}
					}
				}
			}
		}
	}
	JOINT Spine_virtual
	{
		OFFSET 0.000000 0.000000 0.000000
		CHANNELS 3 Xrotation Yrotation Zrotation
		JOINT Spine
		{
			OFFSET 0.000000 6.876099 0.125700
			CHANNELS 3 Xrotation Yrotation Zrotation
			JOINT Spine1
			{
				OFFSET 0.000000 5.730043 0.104720
				CHANNELS 3 Xrotation Yrotation Zrotation
				JOINT Spine1_split
				{
					OFFSET 0.000000 5.730043 0.104720
					CHANNELS 3 Xrotation Yrotation Zrotation
					JOINT Spine2
					{
						OFFSET 0.000000 5.730043 0.104720
						CHANNELS 3 Xrotation Yrotation Zrotation
						JOINT Neck_virtual
						{
							OFFSET 0.000000 0.000000 0.000000
							CHANNELS 3 Xrotation Yrotation Zrotation
							JOINT Neck
							{
								OFFSET 0.000000 10.314075 0.188496
								CHANNELS 3 Xrotation Yrotation Zrotation
								JOINT Head
								{
									OFFSET 0.000000 7.643700 -2.377400
									CHANNELS 3 Xrotation Yrotation Zrotation
									JOINT HeadTop_End
									{
										OFFSET 0.000000 43.788605 -13.619600
										CHANNELS 3 Xrotation Yrotation Zrotation
										End Site
										{
											OFFSET 0 0 0
										}
									}
								}
							}
						}
						JOINT LeftShoulder_virtual
						{
							OFFSET 0.000000 0.000000 0.000000
							CHANNELS 3 Xrotation Yrotation Zrotation
							JOINT LeftShoulder
							{
								OFFSET 2.196100 4.412489 0.087492
								CHANNELS 3 Xrotation Yrotation Zrotation
								JOINT LeftShoulder_split
								{
									OFFSET 2.196100 4.412489 0.087492
									CHANNELS 3 Xrotation Yrotation Zrotation
									JOINT LeftArm
									{
										OFFSET 8.771219 -2.981674 -0.026999
										CHANNELS 3 Xrotation Yrotation Zrotation
										JOINT LeftForeArm
										{
											OFFSET 8.512804 0.000000 -0.000000
											CHANNELS 3 Xrotation Yrotation Zrotation
											JOINT LeftHand
											{
												OFFSET 18.484802 0.000000 -0.000000
												CHANNELS 3 Xrotation Yrotation Zrotation
												End Site
												{
													OFFSET 0 0 0
												}
											}
										}
									}
								}
							}
						}
						JOINT RightShoulder_virtual
						{
							OFFSET 0.000000 0.000000 0.000000
							CHANNELS 3 Xrotation Yrotation Zrotation
							JOINT RightShoulder
							{
								OFFSET -2.196100 4.412496 0.070690
								CHANNELS 3 Xrotation Yrotation Zrotation
								JOINT RightShoulder_split
								{
									OFFSET -2.196100 4.412496 0.070690
									CHANNELS 3 Xrotation Yrotation Zrotation
									JOINT RightArm
									{
										OFFSET -8.771282 -2.981682 -0.094208
										CHANNELS 3 Xrotation Yrotation Zrotation
										JOINT RightForeArm
										{
											OFFSET -8.494598 0.000000 0.000000
											CHANNELS 3 Xrotation Yrotation Zrotation
											JOINT RightHand
											{
												OFFSET -18.483803 0.000000 0.000001
												CHANNELS 3 Xrotation Yrotation Zrotation
												End Site
												{
													OFFSET 0 0 0
												}
											}
										}
									}
								}
							}
						}
					}
				}
			}
		}
	}
}
MOTION
Frames: 5
Frame Time: 0.03333333
-0.550950 32.656158 0.597134 0.000000 0.000000 0.000000 -47.986023 -82.862489 -45.655911 -7.331160 15.627410 9.469166 27.747485 -2.240663 0.237252 -13.555895 3.144950 -9.269504 -5.655921 -0.911045 -0.982093 0.000000 0.000000 0.000000 -35.102559 -82.062565 -33.599090 3.683086 -24.767632 -4.859336 21.649150 12.652512 -11.068882 -15.106987 -3.033716 11.789355 1.457578 -0.319697 0.835253 0.000000 0.000000 0.000000 -48.510005 -81.543320 -46.880427 3.607304 0.324479 1.677384 3.738990 0.229467 1.931013 0.682440 5.820310 -0.542059 0.000000 0.000000 0.000000 3.793409 -0.245131 1.533335 -6.344386 6.870065 -3.326277 5.425139 36.221593 -3.046338 0.000000 0.000000 0.000000 5.228546 0.314527 1.623353 0.735108 5.122017 0.271305 -0.851763 0.408989 -0.639802 8.780811 -80.328625 -54.312838 -1.953328 -23.523108 -0.423834 0.000000 0.000000 0.000000 6.364303 0.846897 1.095658 1.196308 3.170815 7.380138 3.129895 3.836451 -0.607401 13.491300 28.034045 59.318014 1.215967 30.702137 0.031456 0.000000 0.000000 0.000000 
-0.507588 32.638458 0.687263 0.000000 0.000000 0.000000 -49.827132 -82.901790 -47.363025 -7.033267 15.498705 9.499932 28.037373 -2.429350 0.318766 -13.943718 3.316317 -8.759027 -4.856545 -0.810777 -1.312301 0.000000 0.000000 0.000000 -34.774225 -81.941438 -33.295355 3.648534 -24.608442 -4.830321 21.534258 12.476240 -11.041813 -14.834860 -3.158304 11.539815 1.494155 -0.321277 0.889134 0.000000 0.000000 0.000000 -49.172581 -81.471562 -47.574156 3.678149 0.172852 1.706137 3.711403 0.195401 1.937988 0.891637 4.566402 -0.286787 0.000000 0.000000 0.000000 3.773087 -0.212613 1.562286 -6.520008 6.776078 -3.325749 5.355893 36.054950 -3.175704 0.000000 0.000000 0.000000 5.231715 0.301401 1.670440 0.694384 4.968877 0.202782 -0.828128 0.465797 -0.359858 11.850340 -80.395363 -51.491539 -2.226501 -23.783660 -0.775083 0.000000 0.000000 0.000000 6.393165 0.875426 1.192428 1.306132 2.970353 7.264580 3.203481 3.777095 -0.768454 13.654970 28.098290 59.112070 1.249563 31.483374 -0.138439 0.000000 0.000000 0.000000 
-0.443617 32.608643 0.743534 0.000000 0.000000 0.000000 -51.165674 -82.784065 -48.638993 -6.823895 15.697161 9.575248 28.296034 -2.658287 0.568744 -14.747522 3.397758 -8.566689 -3.542112 -0.656566 -1.681279 0.000000 0.000000 0.000000 -35.544349 -81.655103 -34.048944 3.641672 -24.436740 -4.751038 21.763481 12.417982 -11.038496 -14.557143 -3.181612 11.714750 1.188211 -0.355063 0.705836 0.000000 0.000000 0.000000 -49.719044 -81.362252 -48.114537 3.890969 -0.121424 1.830841 3.686519 0.093859 1.947873 0.849148 3.676839 -0.132714 0.000000 0.000000 0.000000 3.851397 -0.267790 1.645485 -6.825475 6.788182 -3.451414 5.217781 36.147806 -3.401063 0.000000 0.000000 0.000000 5.347145 0.211440 1.744146 0.695601 4.908215 0.140684 -0.748337 0.915625 -0.447804 17.118778 -80.384496 -46.682837 -2.339454 -24.391642 -1.087815 0.000000 0.000000 0.000000 6.397875 0.792289 1.319449 1.433719 2.751415 7.017554 3.288334 4.003116 -0.731151 13.791934 27.960506 59.216791 1.265349 33.020478 -0.297265 0.000000 0.000000 0.000000 
-0.357274 32.571194 0.744312 0.000000 0.000000 0.000000 -51.692330 -82.556688 -49.133748 -6.739146 16.279867 9.626676 28.449078 -2.942183 0.905996 -15.368366 3.288118 -9.061358 -3.023364 -0.501260 -1.722303 0.000000 0.000000 0.000000 -36.435156 -81.303785 -34.894456 3.584871 -24.187998 -4.715724 22.278262 12.501327 -11.050198 -14.436593 -3.061558 12.223334 0.860564 -0.390336 0.374785 0.000000 0.000000 0.000000 -50.264445 -81.269921 -48.587247 4.183081 -0.488897 1.954976 3.674450 0.001562 1.950958 0.777990 3.104420 -0.233294 0.000000 0.000000 0.000000 4.003914 -0.355337 1.745616 -7.136956 6.872765 -3.688867 4.995980 36.417179 -3.685902 0.000000 0.000000 0.000000 5.518228 0.110681 1.833504 0.722946 4.938685 0.090846 -0.697906 1.467655 -0.744288 23.149396 -80.310648 -41.145346 -2.235654 -24.912437 -1.288191 0.000000 0.000000 0.000000 6.384536 0.665742 1.439383 1.536926 2.627011 6.750805 3.424608 4.456246 -0.617275 13.755479 27.639033 59.598960 1.249402 34.706384 -0.422871 0.000000 0.000000 0.000000 
-0.234910 32.541004 0.697376 0.000000 0.000000 0.000000 -51.884146 -82.406424 -49.266295 -6.730691 17.164807 9.566108 28.466371 -3.117407 1.252559 -15.598689 2.987684 -9.939067 -3.752511 -0.373675 -1.280110 0.000000 0.000000 0.000000 -36.867736 -81.077289 -35.254561 3.568115 -23.800571 -4.735203 22.744052 12.705648 -11.127351 -14.709335 -2.850812 12.633545 0.900701 -0.396204 0.021627 0.000000 0.000000 0.000000 -51.413163 -81.377415 -49.619221 4.443410 -0.841645 1.943838 3.682952 -0.008534 1.945861 0.953704 2.883629 -0.379653 0.000000 0.000000 0.000000 4.196793 -0.388493 1.824582 -7.316818 7.030192 -3.938659 4.676453 36.848290 -4.023865 0.000000 0.000000 0.000000 5.682745 0.083372 1.911363 0.756092 5.020837 0.003983 -0.792220 1.722735 -1.142115 27.841757 -80.173047 -36.749693 -1.846473 -25.189417 -1.296820 0.000000 0.000000 0.000000 6.360979 0.579957 1.523671 1.598015 2.607450 6.644489 3.460219 4.989437 -0.554002 13.373341 27.118867 60.205181 1.196725 36.083568 -0.496027 0.000000 0.000000 0.000000 
